<?xml version="1.0" encoding="UTF-8"?>
<svg width="1280" height="720" viewBox="0 0 1280 720" fill="none" xmlns="http://www.w3.org/2000/svg">
  <!-- Background -->
  <rect width="1280" height="720" fill="#111B21"/>
  
  <!-- Sidebar -->
  <rect width="420" height="720" fill="#1F2C34"/>
  
  <!-- Sidebar header -->
  <rect width="420" height="60" fill="#202C33"/>
  <circle cx="30" cy="30" r="18" fill="#65a30d"/>
  <text x="56" y="35" font-family="sans-serif" font-size="16" fill="#E9EDEF" font-weight="600">Yappin'</text>
  
  <!-- Chat list items -->
  <g transform="translate(0, 70)">
    <rect width="420" height="72" fill="rgba(101,163,13,0.08)"/>
    <circle cx="36" cy="36" r="22" fill="#65a30d"/>
    <text x="70" y="30" font-family="sans-serif" font-size="15" fill="#E9EDEF" font-weight="500">Alice</text>
    <text x="70" y="50" font-family="sans-serif" font-size="13" fill="#8696a0">Hey! Keep yappin' 🎉</text>
  </g>
  <g transform="translate(0, 142)">
    <rect width="420" height="72" fill="transparent"/>
    <circle cx="36" cy="36" r="22" fill="#374045"/>
    <text x="70" y="30" font-family="sans-serif" font-size="15" fill="#E9EDEF" font-weight="500">Group Chat</text>
    <text x="70" y="50" font-family="sans-serif" font-size="13" fill="#8696a0">Bob: sounds good!</text>
  </g>
  
  <!-- Chat area -->
  <rect x="420" width="860" height="60" fill="#202C33"/>
  <text x="450" y="35" font-family="sans-serif" font-size="17" fill="#E9EDEF" font-weight="600">Alice</text>
  <text x="450" y="52" font-family="sans-serif" font-size="12" fill="#65a30d">online</text>
  
  <!-- Messages -->
  <rect x="460" y="100" rx="10" ry="10" width="280" height="40" fill="#1F2C34"/>
  <text x="475" y="125" font-family="sans-serif" font-size="14" fill="#E9EDEF">Hey, how's it going? 👋</text>
  
  <rect x="780" y="160" rx="10" ry="10" width="260" height="40" fill="#005c4b"/>
  <text x="795" y="185" font-family="sans-serif" font-size="14" fill="#E9EDEF">Great! Keep yappin' man 😄</text>
  
  <rect x="460" y="220" rx="10" ry="10" width="200" height="40" fill="#1F2C34"/>
  <text x="475" y="245" font-family="sans-serif" font-size="14" fill="#E9EDEF">Check this out!</text>
  
  <!-- Compose bar -->
  <rect x="420" y="660" width="860" height="60" fill="#202C33"/>
  <rect x="440" y="672" rx="20" ry="20" width="760" height="36" fill="#2A3942"/>
  <text x="465" y="695" font-family="sans-serif" font-size="14" fill="#8696a0">Type a message</text>
  <circle cx="1230" cy="690" r="18" fill="#65a30d"/>
  <text x="1224" y="696" font-family="sans-serif" font-size="16" fill="#fff">▶</text>
</svg>
